<?xml version="1.0" encoding="UTF-8" standalone="no"?>
<!-- Created with Inkscape (http://www.inkscape.org/) -->

<svg
   xmlns:dc="http://purl.org/dc/elements/1.1/"
   xmlns:cc="http://creativecommons.org/ns#"
   xmlns:rdf="http://www.w3.org/1999/02/22-rdf-syntax-ns#"
   xmlns:svg="http://www.w3.org/2000/svg"
   xmlns="http://www.w3.org/2000/svg"
   xmlns:sodipodi="http://sodipodi.sourceforge.net/DTD/sodipodi-0.dtd"
   xmlns:inkscape="http://www.inkscape.org/namespaces/inkscape"
   width="122.71498mm"
   height="131.54274mm"
   viewBox="0 0 434.81683 466.09632"
   id="svg4302"
   version="1.1"
   inkscape:version="0.91 r13725"
   sodipodi:docname="faerix_small_dragon.svg">
  <defs
     id="defs4304" />
  <sodipodi:namedview
     id="base"
     pagecolor="#ffffff"
     bordercolor="#666666"
     borderopacity="1.0"
     inkscape:pageopacity="0.0"
     inkscape:pageshadow="2"
     inkscape:zoom="0.49497475"
     inkscape:cx="238.70849"
     inkscape:cy="734.99195"
     inkscape:document-units="px"
     inkscape:current-layer="layer1"
     showgrid="false"
     fit-margin-top="0"
     fit-margin-left="0"
     fit-margin-right="0"
     fit-margin-bottom="0"
     inkscape:window-width="1920"
     inkscape:window-height="1027"
     inkscape:window-x="0"
     inkscape:window-y="0"
     inkscape:window-maximized="1">
    <inkscape:grid
       type="xygrid"
       id="grid4316"
       originx="-33.962125"
       originy="-12.724409" />
  </sodipodi:namedview>
  <metadata
     id="metadata4307">
    <rdf:RDF>
      <cc:Work
         rdf:about="">
        <dc:format>image/svg+xml</dc:format>
        <dc:type
           rdf:resource="http://purl.org/dc/dcmitype/StillImage" />
        <dc:title></dc:title>
      </cc:Work>
    </rdf:RDF>
  </metadata>
  <g
     inkscape:label="Layer 1"
     inkscape:groupmode="layer"
     id="layer1"
     transform="translate(-33.962127,-573.54148)">
    <path
       style="fill:#c8c8c8;fill-opacity:1"
       d="m 216.81858,1008.0874 c -8.3336,-12.86085 -12.84136,-27.85055 -15.18051,-47.46467 -1.57375,-13.1962 -5.68203,-18.6342 -5.68203,-7.5212 0,6.3182 -7.29419,15.0423 -12.57679,15.0423 -6.07913,0 -36.24033,-8.2079 -40.80248,-10.6012 -10.07126,-5.2834 -4.22424,-12.0369 3.9675,-16.6983 5.4575,-3.1055 6.42599,-5.0334 6.43751,-10.9582 0.007,-4.1367 -1.5725,-8.0263 -2.2777,-8.0263 -0.70521,0 -7.01152,3.1878 -14.01405,7.0839 -15.9973,8.9007 -25.65682,6.1162 -28.73712,-3.8057 -2.69082,-8.6674 6.79717,-17.0491 11.92345,-22.34 0,0 -12.22406,11.3401 -15.10501,14.6439 -2.34631,2.6906 -11.254587,8.9935 -13.419907,9.0122 -2.16533,0.019 -9.93419,1.5962 -17.26416,3.5054 -16.04282,4.1786 -33.53854,4.5039 -37.348131,0.6943 -1.52737,-1.5274 -2.77704,-6.8685 -2.77704,-11.8691 0,-7.1743 1.74255,-11.0208 8.261621,-18.2366 4.5439,-5.0296 10.277,-13.4869 12.74024,-18.7941 6.9306,-14.9324 12.28383,-22.8918 17.2471,-25.6437 2.49912,-1.3856 7.31256,-4.3418 10.69652,-6.5692 3.38396,-2.2274 9.13468,-4.0498 12.77938,-4.0498 3.64469,0 10.252947,-2.4565 14.685057,-5.4588 4.43209,-3.0023 10.40147,-6.1966 13.26529,-7.0985 8.49932,-2.6767 6.59594,-12.4804 -6.14876,-31.6704 -6.24563,-9.4042 -16.13883,-21.7413 -21.984897,-27.4158 -11.35059,-11.0174 -12.7728,-16.2551 -7.35873,-27.101 1.79875,-3.6033 4.83042,-10.1964 6.73707,-14.6513 15.961917,-37.29464 27.622307,-57.55633 41.285737,-71.74015 7.96973,-8.27326 16.72925,-16.60437 19.4656,-18.51359 34.28033,-23.91813 37.63522,-25.77414 45.26879,-25.04371 10.70375,1.0242 11.46153,8.12457 2.01537,18.88318 -8.22522,9.36798 -21.15421,34.06005 -21.05345,40.20827 0.0373,2.2751 0.71629,7.37337 1.50888,11.32947 1.0135,5.05866 -0.068,10.15114 -3.64519,17.16282 -4.60717,9.03081 -4.80282,10.82881 -2.07711,19.08771 1.65503,5.0148 4.36803,9.6393 6.02889,10.2766 4.20156,1.6123 3.85906,17.9139 -0.45157,21.4914 -1.90922,1.5845 -3.4713,5.2294 -3.4713,8.0997 0,2.8703 1.56208,6.5152 3.4713,8.0997 5.4909,4.5571 4.08053,11.8792 -3.8677,20.0797 l -6.07631,7.5719 -2.92966,8.4117 c -1.71441,4.9224 0.73241,11.5199 11.66427,7.884 4.0062,-0.074 22.8298,-17.971 26.98504,-25.6561 4.20841,-7.7835 4.60983,-10.6122 2.68613,-18.9281 -3.2334,-13.9775 -0.96009,-33.7273 5.05447,-43.9114 2.81886,-4.773 5.9362,-8.6783 6.92739,-8.6783 0.9912,0 6.70771,-5.9879 12.70333,-13.30661 17.65521,-21.55103 45.42343,-48.65203 67.02319,-65.41273 33.45571,-24.10783 77.82264,-34.06383 114.00459,-51.13893 10.42482,-4.9465 23.6144,-9.24618 23.6144,-9.24618 9.9363,-3.44696 23.24467,-10.35912 27.76189,-0.41407 -4.04061,6.37969 -5.65735,5.96182 -9.79398,9.84637 -9.98681,9.37821 -28.83743,33.9777 -33.09491,44.42343 -0.77815,1.90921 -2.36555,5.03338 -3.52753,6.94259 -1.16201,1.90922 -3.68029,6.95894 -5.5962,11.22161 -1.91592,4.26267 -5.23472,16.5563 -7.68379,19.29408 -18.06933,13.29065 -22.49765,23.79025 -30.13564,41.07958 -2.81043,6.23846 -4.92065,21.21246 -3.43919,40.47646 l 2.11292,27.475 -11.84655,2.357 c -6.5156,1.2964 -13.70628,3.9192 -15.97931,5.8284 -6.27368,5.2695 -10.35842,17.0717 -10.35842,29.9288 0,14.3285 -4.55992,17.7053 -20.58811,15.2462 -14.91728,-2.2886 -20.62787,-2.1085 -33.23104,1.0477 -9.423,2.3597 -11.88642,4.2578 -17.12265,13.1927 -6.68692,11.4104 -3.99032,10.8266 -29.27596,6.3386 -5.18933,-0.921 -8.53562,-0.2904 -10.40389,1.9607 -2.25477,2.7169 -0.30134,5.2858 10.77493,14.1697 16.11314,12.9239 19.42497,18.4047 18.43609,30.5102 -0.70627,8.6458 -1.18804,9.1587 -9.63554,10.2579 l -8.89208,1.1571 5.99933,5.6104 c 3.29966,3.0857 5.99936,7.8121 5.99936,10.5031 0,2.691 2.22938,9.0182 4.95416,14.0604 3.43041,6.3479 4.96609,13.3269 4.99291,22.6908 0.0449,15.69332 -4.73303,24.41682 -15.15402,16.87652 -14.45988,-10.46272 -10.58054,0.8294 -6.32968,10.5266 6.07921,13.86805 11.53751,19.65985 25.22268,26.76385 12.25714,6.3628 16.95264,7.5212 30.48592,7.5212 14.23929,0 13.63706,0.7576 22.56319,1.1659 -4.79822,5.368 -13.74279,9.3854 -26.25802,11.8742 -23.12642,3.6522 -60.23861,-9.7372 -75.15538,-30.9515 z"
       id="path3423-3"
       inkscape:connector-curvature="0"
       sodipodi:nodetypes="cssssscssscscsssssssssssssssssssscsssssscscsssssccccssssccscssssssssssscssssssssccc" />
  </g>
</svg>
